<svg xmlns="http://www.w3.org/2000/svg" viewBox="0 0 1024 405.14"><defs><style>.cls-1{opacity:0.10;}.cls-2{fill:#fff;}</style></defs><title>logo-transparent_1</title><g id="Layer_2" data-name="Layer 2"><g id="Layer_1-2" data-name="Layer 1"><g class="cls-1"><path class="cls-2" d="M920.69,249.16H849.86V218.8H792.65v36.25H772.35v42.1a278.75,278.75,0,0,0-49.41-4.39,283.93,283.93,0,0,0-56.78,5.7v-2.7l-13-4.71V250.27l-3.53-3.54V221.27l-38.1-22.65-46,29.8V249l-3.77,1.82v29.29L543,289.95v15l-28.23-9.71L499.24,309V288.2l-1.5-.21a39.51,39.51,0,0,1-16.06-5.93h0a19.17,19.17,0,0,1-4.46-4.68,34.75,34.75,0,0,0-2.94-3.51c-4.57-4.61-10.39-1.78-12.57-.7-1.3.64-2.79,1.23-4,.89a4.67,4.67,0,0,1-2.34-2.22c-.38-.66-.69-1.36-1-2a20.12,20.12,0,0,0-2-3.61,32.1,32.1,0,0,0-8.21-8.05c-3-2-6.78-2.85-11.79-2.83-4.14,0-8.48.25-12.07,2.38a31.25,31.25,0,0,0-8.91,8.5,20.12,20.12,0,0,0-2,3.61c-.32.69-.64,1.39-1,2a4.67,4.67,0,0,1-2.33,2.23c-1.18.33-2.68-.25-4-.89-2.19-1.07-8-3.91-12.58.7a36,36,0,0,0-2.93,3.5,19.07,19.07,0,0,1-4.46,4.69A39.51,39.51,0,0,1,366,288l-1.5.21v4.21h-6.82v-28h-1c-9.65-8.33-9.34-23.9-9.33-24.06l-.08-.09a1.66,1.66,0,0,0-.61-1.35l-13.07-9.86V224h1.87a1.73,1.73,0,0,0,0-3.47h-1.87v-1.91a1.73,1.73,0,0,0-3.47,0v1.91h-1.87a1.73,1.73,0,0,0,0,3.47h1.87v5.1l-13.07,9.86a1.66,1.66,0,0,0-.6,1.35l-.08.09c0,.13.17,10.07-4.67,18.33V164l-7.93-8.11-15.15-43.14-24.26-26-14.77,35.1-7.48,18.7-12.67-27.85-.25-.54-36-19-29.14,63.84,0,73.92a39.51,39.51,0,0,0-15.89-3.33H137.53a12.11,12.11,0,0,0-5.71-9V208.31a1.75,1.75,0,0,0-.32-1l-8.24-11.66v-8a1.73,1.73,0,0,0-3.47,0v8.2l-8.2,10.76a1.72,1.72,0,0,0-.36,1.05v10.95a12.11,12.11,0,0,0-5.71,9H94.86a39.47,39.47,0,0,0-16.62,3.69V215.46h.46a5.76,5.76,0,1,0,0-11.49h-.46v-26.6c0-5.71-3.49-11-9.17-13.9V141.1c0-3.74-3.33-6.8-7.46-6.88v-9.52a10.46,10.46,0,0,0-5.85-9v-7.47c0-5.83-5-10.61-11.55-11.35V85.07a1.73,1.73,0,0,0-3.47,0V96.82c-6.5.75-11.55,5.52-11.55,11.35v7.47a10.46,10.46,0,0,0-5.85,9v9.52c-4.13.08-7.46,3.14-7.46,6.88v22.37c-5.69,2.95-9.17,8.19-9.17,13.9V204H6.24a5.76,5.76,0,1,0,0,11.49H6.7V404.88H543v.26H841.82v-.26H945.72V365.4l-25-11Zm21.56,152.25H895.69V347.17l21.53,9.48,1.74.76,1.73.76,21.56,9.49Zm-92.39,0H829.29V361.89l.37-.09,1.73-.44,1.74-.44,5.22-1.31,1.73-.44,1.74-.44,4.58-1.15,1.74-.44,1.73-.44,17.64-4.44,1.74-.44,1.73-.44L892.22,346v55.37H849.86Zm-194.34.26H613.7v-7.54l14.44,5.68v-9.11l-14.44-6.14V364l14.44,5.68v-9.11l-14.44-6.14V333.82l14.44,5.68V330.4l-14.44-6.14V303.67l14.44,5.68v-9.11L613.7,294.1V269.57h4.65V246.49H613.7V203.92l32.5,19.33v24.92l3.53,3.54v41.78l13,4.71V401.67Zm-211.6-.26V385.17a12,12,0,0,0-24.05,0v16.24H404.11V354.89h55.57v46.52Zm8.91-50V335.67a1.78,1.78,0,0,0-3.56,0v15.76h-4.15V340.75a1.78,1.78,0,1,0-3.56,0v10.68H437.4v-2.21a1.78,1.78,0,1,0-3.56,0v2.21H430v-2.21a1.78,1.78,0,1,0-3.56,0v2.21h-4.15V340.75a1.78,1.78,0,1,0-3.56,0v10.68h-4.15V335.67a1.78,1.78,0,0,0-3.56,0v15.76H400.64v50h-22V351.83L368.12,349l-.1,0V291.19A43,43,0,0,0,384,285a22.09,22.09,0,0,0,5.33-5.49,33,33,0,0,1,2.64-3.17c2-2,4.49-2,8.59,0,1.79.87,4.13,1.81,6.49,1.09a7.81,7.81,0,0,0,4.35-3.82c.43-.75.79-1.52,1.15-2.3a17.31,17.31,0,0,1,1.64-3,27.94,27.94,0,0,1,7.89-7.6c2.85-1.68,6.67-1.86,10.34-1.89,4.16,0,7.44.7,9.88,2.28a28.88,28.88,0,0,1,7.31,7.21,17.31,17.31,0,0,1,1.64,3c.36.78.73,1.56,1.15,2.31a7.85,7.85,0,0,0,4.36,3.82c2.35.7,4.7-.22,6.48-1.1,4.1-2,6.58-2,8.59,0a32.69,32.69,0,0,1,2.64,3.18,22,22,0,0,0,5.32,5.48h0a42.93,42.93,0,0,0,16,6.23V344l-29,7.87v49.58h-3.67v-50Zm-84.82,50H287.84V338.73l7.82-4.25,1.73-.94.22-.12,1.52.41,9.13,2.48,1.73.47,1.73.47,1,.26,12.57,3.42L357,349.54l6.38,1.73,1.21.33,1.73.47,1.74.47.1,0,7,1.91v46.92Zm-200.57,0H78.24V327.53h7.39l.15-1.57c1.42-15,16.89-26.77,35.2-26.77s33.79,11.76,35.2,26.77l.15,1.57H184v73.89ZM58,401.41H10.17V251.19h64.6V401.41ZM3.47,209.72a2.57,2.57,0,0,1,2.77-2.28h3.93v-15.6h64.6v15.6H78.7a2.32,2.32,0,1,1,0,4.55H74.77v35.72H10.17V212H6.24A2.56,2.56,0,0,1,3.47,209.72ZM19.35,141.1c0-1.88,1.87-3.42,4.17-3.42h3.29v-13c0-2.68,1.84-5.11,4.79-6.35l1.07-.44v-9.73c0-4,3.52-7.24,8.14-7.9a10.21,10.21,0,0,1,3.35,0c4.61.66,8.14,3.94,8.14,7.9v9.73l1.07.44c3,1.24,4.79,3.67,4.79,6.35v13h3.29c2.3,0,4.17,1.53,4.17,3.42v24.58l1,.46c5,2.27,8.15,6.57,8.15,11.23v11H10.17v-11c0-4.67,3.12-9,8.15-11.23l1-.46Zm95.37,67.16,6.57-8.62c.09,0,.15.1.25.1s.18-.1.29-.12l6.53,9.25v8.31a12.06,12.06,0,0,0-2.85-.37h-7.93a12,12,0,0,0-2.85.37Zm0,12.59a8.51,8.51,0,0,1,2.85-.58h7.93a8.52,8.52,0,0,1,2.85.58,8.36,8.36,0,0,1,1.74.92,7.46,7.46,0,0,1,3.84,5.88H109.13a7.45,7.45,0,0,1,3.84-5.88A8.39,8.39,0,0,1,114.71,220.84ZM91.59,281.45c1.31-19.47,8.73-35.39,13.81-44.22q.78-1.35,1.46-2.47l.27-.45c.68-1.09,1.25-2,1.73-2.67l.36-.53h24.6l.36.53c.49.72,1.05,1.58,1.74,2.67l.27.45q.69,1.12,1.46,2.46c5.08,8.83,12.5,24.75,13.81,44.22.11,1.64.15,3.32.17,5H91.42C91.44,284.77,91.48,283.09,91.59,281.45Zm17.28-52.82h0Zm25.32,0h0ZM184,317.86v6.19H159.44c-2.46-16-19-28.34-38.46-28.34S85,308,82.52,324.06H78.24V289.93H184v27.94Zm-16.5-81.1a36.21,36.21,0,0,1,17.05,30.65v19H155.11c-.27-26.7-11.87-47.39-17.08-55.34H148.2a35.86,35.86,0,0,1,15.88,3.82c.56.27,1.09.58,1.63.88S166.89,236.41,167.45,236.76Zm-79.5,49.69h-9.7V235.33a35.83,35.83,0,0,1,16.62-4.22H105C99.82,239.07,88.22,259.75,87.95,286.46Zm99.47,37.6v-17.2a39.69,39.69,0,0,0,.55-6.3V267.42a39.79,39.79,0,0,0-20.52-34.77V158.16L194.9,98l31.68,16.75L240.41,145,236,156.09h-6.35V401.41h-42.2Zm45.67,77.36V159.56h5.23l4.09-10.22.89-2.23.85-2.12,8.69-21.75,12.69-30.16,20,21.19,15.15,43.16,7.6,8V263.2c-.4.41-.75.84-1.19,1.23h-1v28H295.66v38.12l-11.29,6.14v64.75H233.09Zm98.79-169.31,8.58,6.47H323.31Zm-12,9.94h24.08c.16,4.17,1.23,14.67,7.82,22.37H336.42v-8.91a3.77,3.77,0,0,0-4-3.51h-1.13a3.77,3.77,0,0,0-4,3.51v8.91H312C318.62,256.72,319.69,246.22,319.85,242Zm-3.72,50.36h-6.61V281.14h6.61Zm23.35,0H325.25V281.14h14.23Zm-40.35,24h13.55v17.5l-1-.26-1.73-.47-1.73-.47-9.13-2.48Zm26.12,0h14.23v19.53h11.34V316.41h13.72V348l-39.3-10.68Zm39.3-3.47H350.16c-.85-2-2.43-3.47-4.3-3.47h-1.41c-1.87,0-3.45,1.44-4.3,3.47H325c-.51-4.14-2.63-7.35-5.29-7.35h-1.56c-2.65,0-4.78,3.21-5.29,7.35H299.13V295.87h65.42Zm-16.31-20.54V281.14h6v11.27Zm6-14.74h-6.73a3.72,3.72,0,0,0-3.13-1.93h-1.09a3.72,3.72,0,0,0-3.13,1.93H324.51a3.89,3.89,0,0,0-3.26-1.93h-1.13a3.89,3.89,0,0,0-3.26,1.93h-7.35v-9.78h44.75Zm148,33.36,13.33-11.84L543,308.63v22.51l-40.78,11.08Zm-31.94,90.39V354.49l25.48-6.93,1.74-.47,1.25-.34.49-.13,1.25-.34,1.73-.47L543,334.73l1.73-.47,1.11-.3.63-.17,1.1-.3.26-.07,1.48.8,8.3,4.51v62.69H470.29Zm79-71.14-1-.57-.69.19-1.1.3V292l18.84-9.89v-29l.44.92,44.47-21.46v13.89h-4.5v23.08h4.5V293.5l-14.44,6.75v9.11l14.44-6.24v20.54l-14.44,6.75v9.11l14.44-6.24V353.8l-14.44,6.75v9.11l14.44-6.24V384l-14.44,6.75v9.11l14.44-6.24v8.1H561.08v-65Zm19.77-100,41.15-26.68v25.11L569.08,248.6Zm206.74,28.22h20.29V222.27h50.28v26.89H829.66v46.56l-7.72,2.34v13.31a253,253,0,0,0-46.11-13.52Zm91.68,90.16-6.5,1.64V292.42l6.5,7Zm-10,2.51-7.67,1.93-1.73.44-1.74.44-4.58,1.15V320.25l-1.75-.87c-2.28-1.13-4.62-2.13-6.94-3.19l-1.74-.8c-.58-.26-1.15-.54-1.73-.8-1.42-.62-2.82-1.28-4.25-1.88V300.63l4.25-1.29,1.73-.53,1.74-.53,13.26-4,1.74-.53,1.73-.52,7.67-2.32Zm-129-31.2v12.69c-4-.17-8-.29-11.77-.36l-.09,0-.07,0c-8-.16-15.37-.12-21.92,0V320.74C704.41,320.17,715.94,319.8,728.58,320ZM763,322v13.31q-4.74-.53-9.39-1a1.68,1.68,0,0,0-.39-.11c-.05,0-.08.06-.13.06-7.24-.66-14.28-1.13-21-1.45V320.07C741.85,320.3,752.27,320.9,763,322Zm9.38,1.09,1.73.23,1.73.25c8.1,1.15,16.29,2.62,24.43,4.48v13.16c-8.19-1.71-16.37-3.11-24.43-4.26l-1.73-.25-1.73-.25c-2-.27-4-.51-5.92-.74V322.36C768.4,322.58,770.38,322.83,772.35,323.09Zm49.58,11,1.74.57,1.73.57c1.43.5,2.84,1,4.25,1.57l1.73.64,1.74.67q2.63,1,5.22,2.15v11.46c-1.73-.61-3.47-1.21-5.22-1.78l-1.74-.55-1.73-.54c-1.42-.44-2.83-.9-4.25-1.32l-1.73-.49-1.74-.49q-9.06-2.56-18.22-4.56v-13.1Q812.92,331.08,821.94,334Zm-124,1.71v21.08l-29.74-19.76C673.58,336.65,684.07,336,697.94,335.76Zm34.33.58c0,.09-.09.14-.09.23v18.88l-12.26-19.57Q725.9,336,732.27,336.34Zm36.46,3.15v17.18l-12.14-18.56C760.59,338.51,764.64,339,768.73,339.49Zm37.2,6.51v17L793.6,343.4C797.71,344.19,801.82,345.06,805.93,346Zm-33.58,13.6-.15.17V339.93l.15,0,1.73.25,1.73.25q6.14.88,12.36,2l-12.36,13.42-1.73,1.88ZM735.62,336.5c4.6.25,9.33.58,14.16,1l-14.14,18.4V336.57S735.62,336.53,735.62,336.5Zm-34.21-.78c3.84,0,7.9,0,12.16,0-4.06,6.34-9.12,14.31-12.16,19.25Zm-35.25,4.17,29.72,19.75c-14.76.6-25.55,1.61-29.72,2Zm50.55-2.6,13.77,22c-9.95-.21-19.3-.13-27.69.12C705,355.68,711.67,345.18,716.71,337.29Zm20.83,21.84L753,339l14.77,22.57c-10.49-1.1-20.88-1.76-30.81-2.1C737.16,359.34,737.39,359.32,737.54,359.13ZM775.82,361l14.69-16,14.18,22.56c-9.43-2.18-19.15-3.85-28.87-5.09l-1.26-.15ZM809.4,346.8q6.29,1.51,12.54,3.31l.14,0-.14.16L809.4,364.47ZM691.27,332.43c-12.25.33-21.13,1-25.11,1.34V323.41c3.36-.46,12.37-1.61,25.11-2.46Zm-25.11,32.73c9-.94,57.28-5.42,106.19.39l1.73.2,1.73.22a253.67,253.67,0,0,1,46.11,9.94c.59.19,1.15.41,1.74.6l1.73.6.42.15v7.18l-.42-.11-1.73-.46-1.74-.46A355.17,355.17,0,0,0,775.82,375l-1.73-.19-1.73-.19a492.25,492.25,0,0,0-106.19.36Zm159.66-6v14.39l-.42-.15-1.73-.6-1.74-.56q-5.79-1.86-11.81-3.41l11.81-13.33,1.74-2,.46-.52,1.27,1.47,3.38,3.91Zm6.74-1.7-1.17-1.35-1.73-2-2-2.34,2,.63,1.73.54,1.74.59c1.75.58,3.49,1.17,5.22,1.78V356l-5.22,1.32Zm5.79-21c-1.73-.73-3.46-1.45-5.22-2.13-.57-.22-1.16-.42-1.74-.64l-1.73-.64c-1.41-.52-2.83-1-4.25-1.52l-1.73-.57-1.74-.57q-6.22-2-12.54-3.67v-7c4.14,1.23,8.31,2.54,12.54,4l1.74.63,1.73.63c1.42.51,2.83,1,4.25,1.53l1.73.66,1.74.69c1.74.67,3.47,1.35,5.22,2.06Zm-32.41-10.63-2.21-.55v0h-.17c-9.23-2.2-18.54-3.89-27.73-5.17l-1.73-.25-.68-.08v-8.45l.68.12,1.73.31a304.76,304.76,0,0,1,30.11,6.95Zm-36-6.53c-11-1.34-21.82-2.14-32-2.52v-9.37a300.15,300.15,0,0,1,32,3.31Zm-35.51-2.63c-11.76-.34-22.69-.19-32.27.22v-9.05a286.21,286.21,0,0,1,32.27-.59Zm-35.74.38c-16.26.81-28.07,2.25-32.53,2.85v-6.59a209.76,209.76,0,0,1,32.53-5.19Zm-32.53,61.42a487.88,487.88,0,0,1,106.19-.36l1.73.19,1.73.19A350.05,350.05,0,0,1,821.94,387l1.74.46,1.73.46.42.11v10.72l-.42-.06-1.73-.27-1.74-.27c-16.47-2.67-31.9-4.63-46.11-6l-1.73-.17-1.73-.14c-58.82-5.23-96.66-.63-106.19.78Zm109.66-77.1a249.26,249.26,0,0,1,46.11,13.71c.57.23,1.16.44,1.74.67s1.16.46,1.73.7c1.44.61,2.83,1.32,4.25,2l1.73.8,1.74.8c1.73.81,3.5,1.55,5.22,2.4v3.74c-1.74-.7-3.49-1.4-5.22-2.06l-1.74-.67-1.73-.63c-1.42-.53-2.84-1-4.25-1.53l-1.73-.62-1.74-.6a309.14,309.14,0,0,0-46.11-11.83l-1.73-.31-1.73-.31c-54.73-9-95.68-.45-106.19,2.15V302a278.09,278.09,0,0,1,56.78-5.76,275,275,0,0,1,49.41,4.45l1.73.34ZM666.16,396.16c8.26-1.27,46.22-6.18,106.19-.81l1.73.14,1.73.18c13.75,1.3,28.66,3.19,44.53,5.74l1.58.25H666.16Zm251.06-43.3-23.58-10.38-.55-.24L871,347.81V298.1l-10.74-11.63-10.36,3.14-1.73.52-1.74.53-13.26,4v-42h84.09Z"/><polygon class="cls-2" points="886.91 389.01 886.91 361.93 870.97 365.1 870.56 365.18 870.56 390.87 870.97 390.82 886.91 389.01"/><polygon class="cls-2" points="852.59 392.91 867.17 391.25 867.17 365.85 852.59 368.75 852.59 392.91"/><polygon class="cls-2" points="846.39 369.98 841.82 370.89 840.08 371.23 838.35 371.58 836.38 371.97 836.38 394.75 838.35 394.52 840.08 394.33 841.82 394.13 846.39 393.61 848.13 393.42 849.2 393.29 849.2 369.42 848.13 369.63 846.39 369.98"/><path class="cls-2" d="M1023.84,65.1a37,37,0,0,0-27-26.2,39.36,39.36,0,0,0-21.11.91c-2,.65-4,1.41-6,2.26a109.13,109.13,0,0,1,18-25.58,4.66,4.66,0,0,0,.94-5.1A5.06,5.06,0,0,0,984,8.53l-1,.15-.86.33c-13.72,6.63-28.4,15.25-35,29.22a92.8,92.8,0,0,0-7.55-9.84c-1.81-2.11-3.69-4.17-5.85-6.55-5.53-6.07-11.25-12.35-15.08-19.53-1.46-2.72-5.85-3.1-7.87-.8A4.38,4.38,0,0,0,909.66,5a118.45,118.45,0,0,0,12.82,40.19,63.32,63.32,0,0,0-7.23-2.2A62.68,62.68,0,0,0,873,47.91a60.8,60.8,0,0,0-18.81,14.75,4.7,4.7,0,0,0-.7,5.07,4.87,4.87,0,0,0,6.1,2.5l.74-.15a101.48,101.48,0,0,1,45.36-2.5c-9.47,3.75-17.48,9.29-23,16-8.33,10.14-11,26.35.4,36.4a4.75,4.75,0,0,0,3.29,1.13l.53,0a4.67,4.67,0,0,0,4.2-3.37,42.25,42.25,0,0,1,31.61-29c-1.75,2.64-3.46,5.35-5,8.17a23.28,23.28,0,0,0-2.1,17.29c.15.59.4,1.18.57,1.77a56.91,56.91,0,0,1-7.59-10.46,4.53,4.53,0,0,0-7.52-.49l-1,1.7.18,1.37a90.24,90.24,0,0,0,8.77,28.66q-1.72-.55-3.5-1a48,48,0,0,0-32.44,3.74,46.62,46.62,0,0,0-14.44,11.32,4.39,4.39,0,0,0-.65,4.75,4.51,4.51,0,0,0,4,2.64,4.18,4.18,0,0,0,1.55-.28l.57-.13a75.15,75.15,0,0,1,30.86-2.31,42.18,42.18,0,0,0-14.88,11.09c-6.54,8-8.62,20.68.37,28.58a4.71,4.71,0,0,0,3.42,1.07h.12A4.37,4.37,0,0,0,888,193a31,31,0,0,1,21.08-20.69c-.91,1.44-1.78,2.88-2.57,4.38a18.36,18.36,0,0,0-1.66,13.63c2,7.77,6.17,15.77,12.22,23.16a4.29,4.29,0,0,0,4.51,1.42,4.67,4.67,0,0,0,3-1.63l1-1.63-.06-1.28c-.28-5.6-.61-13-.55-20.17,0-3.55.27-7.37,1.65-10.06l.81,1.31c41.93,68.22,49.7,142.61,23.09,221.1l-.78,2.29h52.91l1.2-.13.45-1.06c3-7,28.22-71.64,1.47-192.31-4.31-19.44-11.31-37.82-18.77-54.41.08-.08.2-.11.27-.21A4.37,4.37,0,0,0,988,153a28.31,28.31,0,0,0-10.09-15.07c-3.26-6.49-6.44-12.6-9.37-18.19-1.43-2.73-2.79-5.33-4.06-7.79,8.93,5.84,14,11.66,15.82,18.26a4.64,4.64,0,0,0,4.48,3.44,4.92,4.92,0,0,0,4.88-4.27,50.53,50.53,0,0,0-5.86-30.57,51.27,51.27,0,0,0-9.53-12.33c-1-.92-2-1.81-2.94-2.71l-.65-.59a34.11,34.11,0,0,1,17.47,8.48,31.9,31.9,0,0,1,10.08,23.84,4.61,4.61,0,0,0,1.33,3.32,4.92,4.92,0,0,0,6.92,0c8.25-8.93,9.52-21.6,3.77-37.64-1.83-5.11-4.58-11.6-9.74-16.49a31.43,31.43,0,0,0-2.82-2.36c2.74.63,5.72,1.46,9.3,2.59l.67.21c3,.94,6.11,1.91,7.62,3.94a5.08,5.08,0,0,0,7.73.12A4.66,4.66,0,0,0,1023.84,65.1ZM1020.3,67a1.49,1.49,0,0,1-2.22-.08c-2.19-2.92-5.83-4.06-9.36-5.17l-.66-.21a104.9,104.9,0,0,0-12.44-3.26,55.46,55.46,0,0,0-7.65-.93l-12.14-.59,11.49,4a29.65,29.65,0,0,1,10.83,6.42c4.62,4.38,7.17,10.39,8.86,15.13,5.28,14.73,4.26,26.21-3,34.11a1.35,1.35,0,0,1-1.89-.06,1.15,1.15,0,0,1-.35-.84A35.39,35.39,0,0,0,990.55,89.1a38.18,38.18,0,0,0-24.65-9.91L961.6,79l3,3.08c1.39,1.42,2.87,2.77,4.42,4.18,1,.88,1.93,1.76,2.87,2.65a47.85,47.85,0,0,1,8.89,11.49,47,47,0,0,1,5.46,28.46c-.16,1.25-2.21,1.64-2.58.34-2.18-7.78-8.08-14.48-18.58-21.07q-2-1.26-4-2.45l-5-2.95,2.61,5.22c.41.81.88,1.73,1.31,2.58.55,1.09,1.09,2.15,1.68,3.29,1.22,2.37,2.51,4.84,3.88,7.45,2.15,4.11,4.47,8.58,6.83,13.2l1.3,2.56c.52,1,1,2,1.56,3.06,2.09,4.19,4.2,8.58,6.3,13.09.51,1.1,1,2.24,1.53,3.37l.81,1.78c7.39,16.42,14.31,34.6,18.56,53.77,25.59,115.44,3.32,178.81-.89,189.28H976.7c28.07-84.37,26.81-170.24-2.65-247.63-.26-.67-.47-1.35-.73-2s-.5-1.36-.76-2c-1.8-4.56-3.78-9.07-5.78-13.56-.29-.64-.53-1.3-.82-1.94s-.53-1.29-.82-1.92c-2-4.36-4.19-8.65-6.38-12.94-.3-.58-.57-1.17-.86-1.75s-.54-1.13-.83-1.69c-.38-.72-.75-1.45-1.14-2.17-.27-.51-.58-1-.85-1.51s-.58-1-.85-1.52c-2.41-4.44-4.84-8.87-7.46-13.23l-2.52-4.27-1.58,1.33c-5.21,4.4-6,12.05-6,19.67,0,2.49,0,5.08.05,7.74,0,.77,0,1.55,0,2.34s0,1.63.05,2.5c.12,4.37.32,9.1.6,14.45a1.13,1.13,0,0,1-.29.84,1.32,1.32,0,0,1-.92.38l-1,.19a1.08,1.08,0,0,1-.84-.43c-1.4-1.71-2.63-3.46-3.87-5.21a84.26,84.26,0,0,1-5-7.92c-1.15-2.09-2.14-4.18-3.05-6.28a62.66,62.66,0,0,1-3.37-9.52,20,20,0,0,1,1.8-14.82,122.34,122.34,0,0,1,6.77-10.85l-1.09-.74,0-.12,1.37.47,2.19-3.2-3.84.5c-18.3,2.39-33.38,15-38.42,32.14-.16.53-.56.85-1.4.89s-.87-.16-1-.27c-9.79-8.61-7.31-22.7,0-31.59,6.17-7.5,15.87-13.51,27.31-16.92L918.92,67l-6.31-1.5a104.93,104.93,0,0,0-53.2,1.29l-1.13.24a1.29,1.29,0,0,1-1.66-.72,1.25,1.25,0,0,1,.19-1.37A57.32,57.32,0,0,1,874.53,51a58.74,58.74,0,0,1,51.18-.68l5.07,2.37-2.84-4.82A114.93,114.93,0,0,1,913.1,4.59a1,1,0,0,1,.23-.79,1.5,1.5,0,0,1,2.21.14c4,7.56,9.9,14,15.85,20.54,1.86,2,3.72,4.07,5.51,6.16a80,80,0,0,1,9,12.24l1.86,3.27L949,42.62C954.28,28,969.31,19,983.7,12.07l.5-.08a1.33,1.33,0,0,1,1.22.8,1.22,1.22,0,0,1-.27,1.34,112.43,112.43,0,0,0-20.65,30.69l-1.68,4.06L967,47a98.49,98.49,0,0,1,9.76-3.89A36.09,36.09,0,0,1,996,42.28,33.44,33.44,0,0,1,1020.48,66,1.21,1.21,0,0,1,1020.3,67Zm-49,334.37H954.57c26-78.68,17.9-153.27-24.19-221.75-.88-1.43-1.59-2.59-2.1-3.48l-1.11-1.92-1.6,1.54c-3.52,3.39-4,8.92-4.08,14.39-.05,7.3.27,14.72.56,20.36v.24l-.22.39a1,1,0,0,1-.67.28l-.76.15a.84.84,0,0,1-.64-.33c-5.71-7-9.7-14.52-11.52-21.79a15,15,0,0,1,1.36-11.17,84.13,84.13,0,0,1,4.76-7.67l2.23-3.31-3.94.62a34.68,34.68,0,0,0-27.95,24.06c-.12.41-.42.64-1,.68s-.7-.12-.81-.22c-7.37-6.48-5.5-17.09,0-23.78,4.35-5.31,11.14-9.67,19.11-12.3l6.06-2-6.24-1.34A79.46,79.46,0,0,0,863,154.46l-.94.24a1,1,0,0,1-.9-.62,1,1,0,0,1,.15-1,43.06,43.06,0,0,1,13.36-10.48,44.28,44.28,0,0,1,37.38-1l4.76,2.07-2.56-4.52a86.74,86.74,0,0,1-10.53-31.49l0-.22.21-.37c.31-.35,1.16-.85,1.67.1,3,5.68,7.44,10.53,11.74,15.25l.3.33c.63.69,1.24,1.39,1.86,2.08a86.49,86.49,0,0,0,12.18,19.68,4.62,4.62,0,0,0,4.88,1.48,4.79,4.79,0,0,0,3-1.44,4.57,4.57,0,0,0,1.24-3.42c-.35-6.66-.55-12.3-.66-17.53a69,69,0,0,1,12.63-8.24c.61,1.14,1.18,2.29,1.77,3.44A84.49,84.49,0,0,0,943,136.85l-2,4.21,4.26-1.88a66.86,66.86,0,0,1,6.48-2.55,27.49,27.49,0,0,1,11-1.22c2,4.37,3.82,8.78,5.61,13.22-.79-.18-1.56-.4-2.36-.55q-1.43-.27-2.82-.44l-10.73-1.31,9.78,4.6a21.61,21.61,0,0,1,5.67,3.83c3.48,3.29,5.4,7.83,6.68,11.4,3.92,11,3.13,19.83-2.3,25.71a1,1,0,0,1-1.42-.05l-.26-.62a26.69,26.69,0,0,0-8.42-19.92,28.44,28.44,0,0,0-17.4-7.41l-4.74-.35,3.4,3.31c.8.79,1.64,1.55,2.5,2.32s1.47,1.34,2.18,2a35.43,35.43,0,0,1,10.81,30.1c-.12.95-1.66,1.25-1.94.26-1.65-5.87-6.1-10.92-14-15.88l-1.79-1.1-5.06-3,2.62,5.29c1.56,3.15,3.4,6.69,5.41,10.55,9.2,17.7,21.8,41.94,27.7,67.62C991.09,348.82,974.73,393.44,971.32,401.41ZM975.2,264.2c-6-26.12-18.72-50.58-28-68.45l-2.42-4.66c4.85,3.64,7.69,7.31,8.83,11.36a4.33,4.33,0,0,0,4.2,3.21,4.57,4.57,0,0,0,4.53-4,38.89,38.89,0,0,0-11.86-33.05l-.33-.31a24.12,24.12,0,0,1,9.61,5.45,23.56,23.56,0,0,1,7.35,17.68l.35,1.88.87.89a4.6,4.6,0,0,0,6.45,0,21.09,21.09,0,0,0,5.3-11.24c16.7,58.48,17.84,120.95,3,183.36C985.69,343.15,985.55,309.23,975.2,264.2ZM956.33,122.29c1.61,3.19,3.23,6.38,4.73,9.61a31,31,0,0,0-10.39,1.43c-.84.27-1.66.56-2.45.86A81.09,81.09,0,0,1,956.33,122.29Zm-16.22-8c0-5.9.5-11.79,3.35-15.52l.33.55c2.57,4.29,5,8.65,7.33,13a78.07,78.07,0,0,0-11,6.82C940.11,117.47,940.1,115.84,940.11,114.25Z"/><path class="cls-2" d="M99.71,336.86V379h42.55V321.5H99.71Zm3.47,0V325h35.62v50.52H103.18V336.86Z"/><path class="cls-2" d="M134.26,341.88a12.66,12.66,0,0,0-1.22-5,12.07,12.07,0,0,0-10.84-6.65h-2.44a12.07,12.07,0,0,0-10.84,6.65,11.28,11.28,0,0,0-.67,1.73,14.62,14.62,0,0,0-.55,3.29v28.37h26.55Zm-23.08,0a7.46,7.46,0,0,1,.33-1.55,8,8,0,0,1,.42-1.74,8.1,8.1,0,0,1,1.23-1.73,8.58,8.58,0,0,1,6.61-3.18h2.44a8.58,8.58,0,0,1,6.61,3.18,8.1,8.1,0,0,1,1.23,1.73,8,8,0,0,1,.42,1.74,7.46,7.46,0,0,1,.33,1.55v24.9H111.18Z"/><path class="cls-2" d="M35.15,180.18H49.8V160.72a6.43,6.43,0,0,0-6.41-6.41H41.56a6.43,6.43,0,0,0-6.41,6.41Z"/><path class="cls-2" d="M45.92,140.66c0-.14,0-.27,0-.4v-3.16c0-4.23-1.56-7.69-3.46-7.69S39,132.86,39,137.09v3.16c0,.14,0,.27,0,.4Z"/><path class="cls-2" d="M53.25,140.66c0-.07,0-.13,0-.2v-1.58c0-2.12-1-3.85-2.13-3.85S49,136.76,49,138.87v1.58c0,.07,0,.13,0,.2Z"/><path class="cls-2" d="M35.94,140.66c0-.07,0-.13,0-.2v-1.58c0-2.12-1-3.85-2.13-3.85s-2.13,1.73-2.13,3.85v1.58c0,.07,0,.13,0,.2Z"/><path class="cls-2" d="M49.8,234.93V206.46A6.43,6.43,0,0,0,43.38,200H41.56a6.43,6.43,0,0,0-6.41,6.41v30.08H49.8Z"/><path class="cls-2" d="M274.94,177.4V145.08H256.85V177.4h18.09Zm-14.62-28.85h11.15v25.38H260.32Z"/><rect class="cls-2" x="427.38" y="316.66" width="9.03" height="29.78" rx="3.58" ry="3.58"/><path class="cls-2" d="M416.35,312.55h31.09V302.21H416.35Zm3.47-6.87H444v3.4H419.82Z"/></g></g></g></svg>