<svg xmlns="http://www.w3.org/2000/svg" xmlns:xlink="http://www.w3.org/1999/xlink" viewBox="0 0 111.45 101.73" width="60px"><defs><style>.cls-1{fill:none;}.cls-2{fill:#f05a2b;}.cls-3{fill:#2794cf;}.cls-4{clip-path:url(#clip-path);}.cls-5{fill:#6aaf22;}</style><clipPath id="clip-path" transform="translate(-0.08 -11.35)"><rect class="cls-1" width="111.62" height="117.96"/></clipPath></defs><title>host</title><g id="Layer_2" data-name="Layer 2"><g id="Layer_1-2" data-name="Layer 1"><path class="cls-2" d="M41.79,42.15H40a10,10,0,0,0,10,10V50.36a8.22,8.22,0,0,1-8.21-8.21Zm0,0" transform="translate(-0.08 -11.35)"/><path class="cls-2" d="M67.34,11.36A116.56,116.56,0,0,0,59.7,21.1c-3.59-4.88-7.88-9.75-7.88-9.75s-4.29,4.86-7.88,9.74a116.6,116.6,0,0,0-7.64-9.74S23.53,25.83,23.53,32.66A12.78,12.78,0,0,0,35.24,45.38a17.34,17.34,0,0,0,33.17,0A12.78,12.78,0,0,0,80.12,32.66c0-6.82-12.78-21.3-12.78-21.3ZM34.78,43.51a11,11,0,0,1-9.42-10.85c0-5.26,8.45-15.59,10.95-18.52a97.89,97.89,0,0,1,6.49,8.54c-4.17,5.86-8.32,12.9-8.32,17.66a17.6,17.6,0,0,0,.3,3.17Zm17,12.33A15.54,15.54,0,0,1,36.31,40.33c0-7.6,12.44-22.6,15.52-26.2,3.07,3.6,15.52,18.6,15.52,26.2A15.54,15.54,0,0,1,51.82,55.84Zm17-12.35a17.43,17.43,0,0,0,.3-3.17c0-4.75-4.16-11.78-8.32-17.66a97.86,97.86,0,0,1,6.49-8.54c2.5,2.93,11,13.28,11,18.52a10.94,10.94,0,0,1-9.42,10.85Zm0,0" transform="translate(-0.08 -11.35)"/><path class="cls-3" d="M55.48,33.94V29.38h-7.3v4.57H43.61v7.3h4.57v4.57h7.3V41.24H60v-7.3Zm2.74,5.47H53.65V44H50V39.41H45.43V35.76H50V31.19h3.65v4.57h4.57Zm0,0" transform="translate(-0.08 -11.35)"/><g class="cls-4"><path class="cls-3" d="M111,93.91l-18-18a24.44,24.44,0,0,0-33.25-1.18L46.89,61.84a7.4,7.4,0,0,0-12.44,3.59l-5.6-5.6a7.39,7.39,0,0,0-12.44,3.6l-3.6-3.6a7.4,7.4,0,0,0-10.46,0,7.38,7.38,0,0,0,0,10.46l3.49,3.49A7.24,7.24,0,0,0,2.5,75.51a7.38,7.38,0,0,0-.26,10.7l8.58,8.59a1.73,1.73,0,1,0,2.44-2.44L4.68,83.78a4,4,0,0,1,.14-5.71,4.07,4.07,0,0,1,5.55.25L22.82,90.76a7.39,7.39,0,0,0,7.34,7.18l21.44.16h0a1.73,1.73,0,0,0,0-3.45l-21.44-.16a3.94,3.94,0,0,1,.06-7.89l20.93.16a1.73,1.73,0,0,0,1.73-.43l8-8a21,21,0,0,1,29.63,0l18,18A1.73,1.73,0,1,0,111,93.91ZM30.27,83.15h-.06A7.34,7.34,0,0,0,25,85.27a7.43,7.43,0,0,0-1.22,1.58l-19-19a3.94,3.94,0,1,1,5.58-5.58L31.25,83.16Zm5.78,0C36,83,20.83,67.85,20.83,67.85a3.94,3.94,0,1,1,5.58-5.58l21,21Zm15.63-.52L38.87,69.86a3.94,3.94,0,0,1,5.58-5.58L57.26,77.09Zm0,0" transform="translate(-0.08 -11.35)"/></g><path class="cls-3" d="M91.16,110.14l-10-10a1.72,1.72,0,0,0-1.56-.47l-19.88,4H24.5L17,96.11a1.73,1.73,0,0,0-2.44,2.44l8,8a1.73,1.73,0,0,0,1.22.5H59.87a1.73,1.73,0,0,0,.34,0l19.14-3.83,9.37,9.37a1.73,1.73,0,0,0,2.44-2.44Zm0,0" transform="translate(-0.08 -11.35)"/><path class="cls-5" d="M61,21.11" transform="translate(-0.08 -11.35)"/></g></g></svg>