<svg xmlns="http://www.w3.org/2000/svg" viewBox="0 0 118.16 118.16" width="60px" ><defs><style>.cls-1{fill:none;stroke:#127faf;stroke-linecap:round;stroke-linejoin:round;stroke-width:3px;}</style></defs><title>media</title><g id="Layer_2" data-name="Layer 2"><g id="Layer_1-2" data-name="Layer 1"><g id="_13" data-name="13"><circle class="cls-1" cx="59.08" cy="59.08" r="57.58"/><path class="cls-1" d="M90.1,59.08c0,31.8-18.44,57.58-31,57.58-11.31,0-31-25.78-31-57.58S47.12,1.5,59.08,1.5C69.68,1.5,90.1,27.28,90.1,59.08Z"/><line class="cls-1" x1="59.08" y1="1.97" x2="59.08" y2="116.19"/><path class="cls-1" d="M13.26,93.14C23.78,85.7,40.39,80.91,59.08,80.91c18.5,0,35,4.7,45.5,12"/><path class="cls-1" d="M13.26,24.63c10.52,7.43,27.13,12.23,45.82,12.23,18.5,0,35-4.7,45.5-12"/><line class="cls-1" x1="1.71" y1="59.08" x2="116.45" y2="59.08"/></g></g></g></svg>