<svg xmlns="http://www.w3.org/2000/svg" width="60px"  viewBox="0 0 121.34 106.41" ><defs><style>.cls-1,.cls-2,.cls-3{fill:none;stroke-width:3px;}.cls-1,.cls-3{stroke:#ed6c3d;}.cls-1,.cls-2{stroke-linecap:round;stroke-linejoin:round;}.cls-2{stroke:#2794cf;}.cls-3{stroke-miterlimit:10;}</style></defs><title>general</title><g id="Layer_2" data-name="Layer 2"><g id="Layer_1-2" data-name="Layer 1"><g id="_4" data-name="4"><path class="cls-1" d="M33.16,23.55s3.75-4.62,27.51-4.62c23.94,0,27.51,4.62,27.51,4.62L90.07,34a5.43,5.43,0,0,0,5.38,4.65h18.68a5.71,5.71,0,0,0,5.66-6.5L119,26.52c-2.18-18.75-31.93-25-58.34-25C35,1.5,4,7.51,2.33,26.52l-.77,5.59a5.71,5.71,0,0,0,5.66,6.5H25.89A5.43,5.43,0,0,0,31.27,34Z"/><path class="cls-2" d="M113.73,72.79l-1.86-10.44a13.1,13.1,0,0,0-11.52-10.73L87.76,50.3a9.25,9.25,0,0,1-8.18-7.83l-1.24-8.34a5.74,5.74,0,0,0-5.67-4.89h-24A5.74,5.74,0,0,0,43,34.13l-1.24,8.34a9.25,9.25,0,0,1-8.18,7.83L21,51.62A13.1,13.1,0,0,0,9.47,62.35L4.63,89.51a13.1,13.1,0,0,0,12.89,15.4h86.3a13.1,13.1,0,0,0,12.89-15.4l-3-16.73"/><circle class="cls-3" cx="60.67" cy="70.18" r="17.23"/></g></g></g></svg>