<svg xmlns="http://www.w3.org/2000/svg" viewBox="0 0 94.28 77.85" width="60px"><defs><style>.cls-1{fill:none;}.cls-2{fill:#2794cf;}.cls-3{fill:#ed6c3d;}.cls-4{fill:#fff;}</style></defs><title>Asset 1</title><g id="Layer_2" data-name="Layer 2"><g id="Layer_1-2" data-name="Layer 1"><g id="Layer_2-2" data-name="Layer 2"><g id="Layer_1-2-2" data-name="Layer 1-2"><path class="cls-1" d="M56.42,53.2h.09V51.42H49.7V56a12.46,12.46,0,0,1,6.83-2.76Z"/><path class="cls-1" d="M67.78,58.27l-.06-.08.06.08H84V41.14h3.44V48h6.86V41.14a10.29,10.29,0,0,0-9.8-10.26L86,37,72,43,58,37l1.53-6.12a10.29,10.29,0,0,0-9.8,10.26V48H56.6V41.14H60V53.35h0A12.62,12.62,0,0,1,67.78,58.27Z"/><rect class="cls-1" x="87.41" y="51.42" width="6.86" height="6.86"/><polygon class="cls-1" points="79.76 30.85 75.01 37.98 81.97 34.99 80.93 30.85 79.76 30.85"/><path class="cls-1" d="M72,30.85a15.35,15.35,0,0,1-4-.55l4,6,4-6A15.35,15.35,0,0,1,72,30.85Z"/><path class="cls-1" d="M73.59,9.69l3.83-3.81,1.74,2.6A7.87,7.87,0,0,0,84,11.8V8.57A8.58,8.58,0,0,0,75.42,0H68.56A8.58,8.58,0,0,0,60,8.57V12h8A7.84,7.84,0,0,0,73.59,9.69Z"/><path class="cls-1" d="M72,27.42a12,12,0,0,0,12-12v-.15a11.29,11.29,0,0,1-7.09-4.05L76,12.1a11.25,11.25,0,0,1-8,3.32H60A12,12,0,0,0,72,27.42Z"/><polygon class="cls-1" points="63.04 30.85 62 34.99 68.96 37.98 64.21 30.85 63.04 30.85"/><path class="cls-2" d="M93.66,67.59V47A13.73,13.73,0,0,0,79.94,33.3H77.62a15.4,15.4,0,0,0,5.75-12V14.45a12,12,0,0,0-12-12h-6.8A12.06,12.06,0,0,0,52.52,14.51v6.8a15.4,15.4,0,0,0,5.75,12H55.95A13.73,13.73,0,0,0,42.23,47V61.81a0,0,0,0,0,0,0q.53.4,1,.84a.9.9,0,0,0,1.17.05,13.43,13.43,0,0,1,1.19-.89.05.05,0,0,0,0,0V57.36a.06.06,0,0,1,.06-.06h5.9a.91.91,0,0,1,.91.91h0c0,.47-.15,7.53.33,7.53a31.52,31.52,0,0,1,3.31-.12s-.21-6.42-.19-6.44V48.6c0-1.18-.41-1.58-.91-1.58H52.57a.06.06,0,0,0-.06.06v6.75a.06.06,0,0,1-.06.06H45.71a.06.06,0,0,1-.06-.06V47a10.29,10.29,0,0,1,9.72-10.26.06.06,0,0,1,.06.07l-1.5,6,0,.06,13.93,6h0l13.93-6,0-.07-1.5-6a.06.06,0,0,1,.06-.07A10.29,10.29,0,0,1,90.2,47v6.8a.06.06,0,0,1-.06.06H83.43a.06.06,0,0,1-.06-.06V47.08a.06.06,0,0,0-.06-.06H80a.06.06,0,0,0-.06.06v17l-.06.06-34.47.77s-.12,0,0,.07h0L47,65l-.68,2.72,19.23-.11H93.66ZM64.52,5.88h6.86a8.58,8.58,0,0,1,8.56,8.57V17.6l-.07.06a7.87,7.87,0,0,1-4.78-3.3l-1.67-2.54h-.09l-3.76,3.76A7.84,7.84,0,0,1,64,17.88H56a.06.06,0,0,1-.06-.06l0-3.37A8.58,8.58,0,0,1,64.52,5.88Zm-8.6,15.43h8a11.25,11.25,0,0,0,8-3.32l.88-.88a11.29,11.29,0,0,0,7,4l0,.05a12,12,0,1,1-24,.1Zm8.77,22.47L58,40.9l0-.07,1-4.09h1.14l0,0,4.63,6.93A.06.06,0,0,1,64.69,43.78Zm3.21-1.66L64,36.31a.05.05,0,0,1,.06-.08,15,15,0,0,0,7.72,0,.05.05,0,0,1,.06.08L68,42.13A0,0,0,0,1,67.9,42.12Zm9.92-1.22-6.7,2.88a.06.06,0,0,1-.07-.08l4.63-6.93,0,0h1.14l1,4.09A.06.06,0,0,1,77.82,40.9ZM90.24,64.1a.06.06,0,0,1-.06.06H83.43a.06.06,0,0,1-.06-.06V57.36a.06.06,0,0,1,.06-.06h6.75a.06.06,0,0,1,.06.06Z"/></g></g><path class="cls-3" d="M51.46,57.12A13.73,13.73,0,0,0,37.74,43.41H35.42a15.4,15.4,0,0,0,5.75-12V24.55a12,12,0,0,0-12-12H22.31a12,12,0,0,0-12,12V31.4a15.4,15.4,0,0,0,5.75,12H13.75A13.73,13.73,0,0,0,0,57.12V77.69H28.11l23.07.11a.25.25,0,0,0,.28,0ZM35.74,51l-6.92,3,4.75-7.12h1.17Zm-10,1.31-4-6a15,15,0,0,0,8,0Zm-12-27.74A8.58,8.58,0,0,1,22.31,16h6.86a8.58,8.58,0,0,1,8.57,8.57l0,3.43h-8a7.84,7.84,0,0,1-5.58-2.31l-3.81-3.81-1.71,2.6a7.87,7.87,0,0,1-4.85,3.32Zm0,6.86v-.15a11.29,11.29,0,0,0,7.09-4l.88.88a11.25,11.25,0,0,0,8,3.32h8a12,12,0,0,1-24,0Zm3,15.43H18L22.74,54l-6.92-3ZM10.31,74.26H3.45V67.4h6.86Z"/><path class="cls-4" d="M13.75,57.12H10.31V64H3.49V57.12a10.29,10.29,0,0,1,9.8-10.26L11.76,53l14,6,14-6-1.53-6.12A10.29,10.29,0,0,1,48,57.12V64H41.17V57.12H37.72V69.33a19,19,0,0,1,3.45-.16V67.4H48v6.87c-.12,0-.92,0-1,0l-33.26,0Z"/></g></g></svg>