<svg xmlns="http://www.w3.org/2000/svg" viewBox="0 0 162.94 104.27" width="30px"><defs><style>.cls-1{fill:#828282;}.cls-2{fill:#828282;}.cls-3{fill:#828282;}</style></defs><title>who</title><g id="Layer_2" data-name="Layer 2"><g id="Layer_1-2" data-name="Layer 1"><path class="cls-1" d="M109.54,58.74,95.67,52.57a2.72,2.72,0,0,1-1.61-2.48V46.28a20.21,20.21,0,0,0,7.65-15.84V25.09a5,5,0,0,0,2.55-4.32v-.52A20.27,20.27,0,0,0,84,0h-5.1A20.27,20.27,0,0,0,58.68,20.24V25a5,5,0,0,0,1.9,4,4.84,4.84,0,0,0,.65.42v1.05a20.21,20.21,0,0,0,7.65,15.83v3.81a2.72,2.72,0,0,1-1.61,2.48L53.4,58.74a12.6,12.6,0,0,0-7.48,11.51v31.63a2.39,2.39,0,0,0,4.77,0V70.24a7.88,7.88,0,0,1,0-.82l6.39,6.39a5.24,5.24,0,0,1,1.54,3.72v22.34a2.39,2.39,0,0,0,4.77,0V79.54a10,10,0,0,0-2.94-7.1l-7.62-7.62a7.81,7.81,0,0,1,2.45-1.72L69,57,79.08,67.15v34.73a2.39,2.39,0,0,0,4.77,0V67.15L94,57l13.64,6.06a7.81,7.81,0,0,1,2.45,1.72l-7.62,7.62a10,10,0,0,0-2.94,7.1v22.34a2.39,2.39,0,0,0,4.77,0V79.54a5.24,5.24,0,0,1,1.54-3.72l6.39-6.39a7.57,7.57,0,0,1,0,.82v31.63a2.39,2.39,0,0,0,4.77,0V70.24a12.6,12.6,0,0,0-7.48-11.51Zm-28.07,4L72.6,53.92a7.48,7.48,0,0,0,1.05-3.82v-1a20.23,20.23,0,0,0,15.64,0v1a7.48,7.48,0,0,0,1.05,3.82Zm0-16.87A15.49,15.49,0,0,1,66,30.45V29.38a14.1,14.1,0,0,0,4.34-2.81,2.39,2.39,0,0,0-3.24-3.51,8.58,8.58,0,0,1-3.54,2.12h-.06a.49.49,0,0,1,0-.22V20.24A15.49,15.49,0,0,1,78.92,4.78H84A15.49,15.49,0,0,1,99.49,20.24v.52a.15.15,0,0,1-.11.16C85.09,23.75,77.92,18.42,75.5,16a2.39,2.39,0,0,0-3.38,3.38c7.41,7.41,18.23,7.54,24.81,6.75v4.31A15.49,15.49,0,0,1,81.47,45.92Zm0,0"/><path class="cls-2" d="M43,45.76v-5.1a17.69,17.69,0,0,0-8.11-14.86,10,10,0,1,0-19.16,0A17.69,17.69,0,0,0,7.65,40.65v5.1a17.68,17.68,0,0,0,7.65,14.56v5.25A2.7,2.7,0,0,1,13.8,68L5.55,72.12A10,10,0,0,0,0,81.1v20.78a2.39,2.39,0,0,0,4.77,0V82.13L8.66,86a5.24,5.24,0,0,1,1.54,3.73v12.14a2.39,2.39,0,0,0,4.77,0V89.74A10,10,0,0,0,12,82.64L6.63,77.23l-.08-.07a5.31,5.31,0,0,1,1.14-.77l8.25-4.13a7.68,7.68,0,0,0,1.18-.74L23,77.36v24.52a2.39,2.39,0,0,0,4.77,0V77.36l5.84-5.83a7.62,7.62,0,0,0,1.18.74L37,73.4a2.39,2.39,0,0,0,2.13-4.27L36.89,68a2.7,2.7,0,0,1-1.5-2.43V60.31A17.69,17.69,0,0,0,43,45.76ZM25.35,17.53a5.27,5.27,0,0,1,5.27,5.27,5.36,5.36,0,0,1-.08.94,17.7,17.7,0,0,0-10.36,0,5.22,5.22,0,0,1-.09-.94,5.27,5.27,0,0,1,5.27-5.27Zm0,10.2A12.93,12.93,0,0,1,38.27,40.65v.87a15,15,0,0,1-16.11-4.85,2.39,2.39,0,0,0-3.6-.26,15.59,15.59,0,0,1-6.12,3.91A12.93,12.93,0,0,1,25.35,27.73Zm0,45.26-5.51-5.52a7.54,7.54,0,0,0,.25-1.92V62.65a17.72,17.72,0,0,0,10.53,0v2.91a7.54,7.54,0,0,0,.25,1.92Zm0-14.32A12.93,12.93,0,0,1,12.43,45.76v-.49a19.13,19.13,0,0,0,7.67-3.82,21.57,21.57,0,0,0,4.43,3.22A19,19,0,0,0,33.64,47a20,20,0,0,0,4.6-.55,12.94,12.94,0,0,1-12.9,12.21Zm0,0"/><path class="cls-3" d="M157.39,67,144,60.34a2.7,2.7,0,0,1-1.5-2.43V54.53a15.1,15.1,0,0,0,5.1-11.32V40.49h.16a2.39,2.39,0,0,0,2.39-2.39V33A15.16,15.16,0,0,0,135,17.86h-5.1A15.16,15.16,0,0,0,114.8,33v5.1a2.39,2.39,0,0,0,2.39,2.39h.16V43.2a15.11,15.11,0,0,0,5.1,11.32v3.38a2.7,2.7,0,0,1-1.5,2.43,2.39,2.39,0,1,0,2.13,4.27,7.63,7.63,0,0,0,1.18-.74l5.84,5.83v32.18a2.39,2.39,0,0,0,4.77,0V69.7l5.84-5.84a7.54,7.54,0,0,0,1.18.74l12.93,6.46L150.9,75a10,10,0,0,0-2.94,7.1v19.79a2.39,2.39,0,0,0,4.77,0V82.09a5.23,5.23,0,0,1,1.54-3.72L158,74.65a5.29,5.29,0,0,1,.18,1.34v25.88a2.39,2.39,0,0,0,4.77,0V76a10,10,0,0,0-5.55-9ZM119.57,35.22V33a10.38,10.38,0,0,1,10.37-10.37H135A10.38,10.38,0,0,1,145.41,33v2.65c-10.38-.56-16.64-4.6-16.7-4.64a2.39,2.39,0,0,0-3,.3,15.62,15.62,0,0,1-6.13,3.91Zm12.92,30.12L127,59.82a7.59,7.59,0,0,0,.25-1.92V57.4a15.13,15.13,0,0,0,10.53,0v.51a7.54,7.54,0,0,0,.25,1.92Zm0-11.77A10.38,10.38,0,0,1,122.12,43.2V39.36a20.24,20.24,0,0,0,5.6-3.42,42.45,42.45,0,0,0,15.14,4.3v3a10.38,10.38,0,0,1-10.37,10.37Zm0,0"/></g></g></svg>
