<svg id="Layer_1" data-name="Layer 1" xmlns="http://www.w3.org/2000/svg" viewBox="0 0 460.66 512" width="30px"><defs><style>.cls-1{fill:#828282;}</style></defs><title>003-hand-red</title><path class="cls-1" d="M239,230.4a8.53,8.53,0,0,0,8.53-8.53V34.13a17,17,0,0,1,16.89-17.07,17.17,17.17,0,0,1,17.25,17.07V215.65a8.53,8.53,0,1,0,17.07,0V34.13a34.13,34.13,0,1,0-68.26,0V221.87A8.54,8.54,0,0,0,239,230.4Z" transform="translate(-25.67)"/><path class="cls-1" d="M315,223.24a8.55,8.55,0,0,0,9.88-6.92L350,73.84a17.07,17.07,0,0,1,33.63,5.93l-25.28,143.3a8.52,8.52,0,0,0,6.91,9.89,9,9,0,0,0,1.49.13,8.53,8.53,0,0,0,8.4-7L400.39,82.73a34.13,34.13,0,1,0-67.22-11.85L308,213.35A8.54,8.54,0,0,0,315,223.24Z" transform="translate(-25.67)"/><path class="cls-1" d="M298.51,238.93c-58.57,0-102.4,19-121.79,29.24L145.19,96.84a17.06,17.06,0,1,1,33.6-5.93l24,136.35a8.54,8.54,0,1,0,16.81-3l-24-136.35a34.13,34.13,0,1,0-67.22,11.92l33.74,183.28v0c0,.13.11.24.15.38a8.59,8.59,0,0,0,1.07,2.61c0,.06,0,.12.07.18.16.23.39.35.57.56a8.11,8.11,0,0,0,1.54,1.53,7.93,7.93,0,0,0,1.07.62,8.4,8.4,0,0,0,1.7.69,704.4,704.4,0,0,0,2.22.39,8.13,8.13,0,0,0,1.55-.14h0a8.28,8.28,0,0,0,1.49-.6,8.67,8.67,0,0,0,1.66-.67h0c.49-.32,49.9-32.7,123.26-32.7,60.08,0,95.47,30.75,104.9,40.17,5.85,5.86,8,18.32,6.22,26.32-.26,1.19-25.6,119.29-33.88,144.15-8.79,26.33-16,28.3-26,28.3H204.65c-9.38,0-22.26-14.69-26.89-21.59l-130.45-209c-6.13-10.05-5.42-10.76-2-14.16a22.85,22.85,0,0,1,17.31-7c10.78.31,23.22,7.21,33.27,18.47l68.27,76.8a8.54,8.54,0,1,0,12.76-11.35l-68.28-76.81c-13.33-14.93-29.93-23.74-45.53-24.18a39.55,39.55,0,0,0-29.86,12c-13.6,13.59-5.7,26.55-.44,35.19L163.41,482.6c2,3,20.22,29.4,41.23,29.4H349.71c24.06,0,34-15.29,42.22-40,8.59-25.75,33.33-141.08,34.39-146,2.75-12.72-.09-31.22-10.85-42C404.89,273.5,365.15,238.93,298.51,238.93Z" transform="translate(-25.67)"/><path class="cls-1" d="M484.16,137.07c-2.77-6.08-8-10.54-15.52-13.29-16.67-6.05-32.58.77-38.48,16.08l-42.95,92.41a8.53,8.53,0,0,0,15.48,7.19l43.17-92.93c2.73-7.06,9.05-9.58,16.94-6.72,4.62,1.68,5.52,3.68,5.83,4.34,1.2,2.64.67,7.09-1.63,13.08L428.73,265.57a8.53,8.53,0,0,0,5.2,10.88,8.32,8.32,0,0,0,2.84.49,8.54,8.54,0,0,0,8-5.69L483,163.14C487,152.7,487.39,144.17,484.16,137.07Z" transform="translate(-25.67)"/><path class="cls-1" d="M375.31,341.33a8.53,8.53,0,0,0,0-17.07c-54.27,0-86.46-46.93-86.77-47.41a8.53,8.53,0,0,0-14.19,9.48C275.85,288.58,311.75,341.33,375.31,341.33Z" transform="translate(-25.67)"/><path class="cls-1" d="M213.28,348.69a8.54,8.54,0,0,0,7.25,9.63c2.35.34,57.85,9.08,78.32,79.27a8.53,8.53,0,1,0,16.38-4.78c-23.68-81.19-89.58-91-92.37-91.4A8.52,8.52,0,0,0,213.28,348.69Z" transform="translate(-25.67)"/></svg>