<svg id="Layer_1" data-name="Layer 1" xmlns="http://www.w3.org/2000/svg" viewBox="0 0 512 512" width="30px"><defs><style>.cls-1{fill:#ed6c3d;}</style></defs><title>002-calendar-orange</title><path class="cls-1" d="M128,85.33a25.63,25.63,0,0,0,25.6-25.6V25.6a25.6,25.6,0,0,0-51.2,0V59.73A25.63,25.63,0,0,0,128,85.33ZM119.47,25.6a8.53,8.53,0,0,1,17.07,0V59.73a8.53,8.53,0,0,1-17.07,0Z"/><path class="cls-1" d="M8.53,85.33a8.54,8.54,0,0,0,8.53-8.53V59.73c0-12.44,13.16-25.6,25.6-25.6H76.8a8.53,8.53,0,0,0,0-17.07H42.67C20.74,17.07,0,37.8,0,59.73V76.8A8.54,8.54,0,0,0,8.53,85.33Z"/><path class="cls-1" d="M324.27,494.93H42.67c-12.44,0-25.6-13.16-25.6-25.6V119.47H469.33a8.53,8.53,0,0,0,0-17.07H8.53A8.54,8.54,0,0,0,0,110.93v358.4C0,491.26,20.74,512,42.67,512h281.6a8.53,8.53,0,0,0,0-17.07Z"/><path class="cls-1" d="M469.33,315.73a8.54,8.54,0,0,0,8.53-8.53V145.07a8.54,8.54,0,0,0-8.53-8.53H42.67a8.54,8.54,0,0,0-8.53,8.53V443.73a34.17,34.17,0,0,0,34.13,34.13H307.2a8.53,8.53,0,0,0,0-17.07H68.27A17.08,17.08,0,0,1,51.2,443.73V153.6H460.8V307.2A8.54,8.54,0,0,0,469.33,315.73Z"/><path class="cls-1" d="M469.33,17.07H435.2a8.53,8.53,0,0,0,0,17.07h34.13c12.44,0,25.6,13.16,25.6,25.6V324.27a8.53,8.53,0,0,0,17.07,0V59.73C512,37.8,491.26,17.07,469.33,17.07Z"/><path class="cls-1" d="M298.67,85.33a25.63,25.63,0,0,0,25.6-25.6V25.6a25.6,25.6,0,0,0-51.2,0V59.73A25.63,25.63,0,0,0,298.67,85.33ZM290.13,25.6a8.53,8.53,0,1,1,17.07,0V59.73a8.53,8.53,0,1,1-17.07,0Z"/><path class="cls-1" d="M238.93,196.27a8.54,8.54,0,0,0-8.53-8.53H196.27a8.54,8.54,0,0,0-8.53,8.53V230.4a8.54,8.54,0,0,0,8.53,8.53H230.4a8.54,8.54,0,0,0,8.53-8.53Zm-17.07,25.6H204.8V204.8h17.07Z"/><path class="cls-1" d="M384,85.33a25.63,25.63,0,0,0,25.6-25.6V25.6a25.6,25.6,0,0,0-51.2,0V59.73A25.63,25.63,0,0,0,384,85.33ZM375.47,25.6a8.53,8.53,0,1,1,17.07,0V59.73a8.53,8.53,0,1,1-17.07,0Z"/><path class="cls-1" d="M213.33,85.33a25.63,25.63,0,0,0,25.6-25.6V25.6a25.6,25.6,0,0,0-51.2,0V59.73A25.63,25.63,0,0,0,213.33,85.33ZM204.8,25.6a8.53,8.53,0,0,1,17.07,0V59.73a8.53,8.53,0,0,1-17.07,0Z"/><path class="cls-1" d="M418.13,324.27A93.87,93.87,0,1,0,512,418.13,94,94,0,0,0,418.13,324.27Zm0,170.67a76.8,76.8,0,1,1,76.8-76.8A76.89,76.89,0,0,1,418.13,494.93Z"/><path class="cls-1" d="M324.27,196.27a8.54,8.54,0,0,0-8.53-8.53H281.6a8.54,8.54,0,0,0-8.53,8.53V230.4a8.54,8.54,0,0,0,8.53,8.53h34.13a8.54,8.54,0,0,0,8.53-8.53V196.27Zm-17.07,25.6H290.13V204.8H307.2Z"/><path class="cls-1" d="M238.93,281.6a8.54,8.54,0,0,0-8.53-8.53H196.27a8.54,8.54,0,0,0-8.53,8.53v34.13a8.54,8.54,0,0,0,8.53,8.53H230.4a8.54,8.54,0,0,0,8.53-8.53Zm-17.07,25.6H204.8V290.13h17.07Z"/><path class="cls-1" d="M145.07,358.4H110.93a8.54,8.54,0,0,0-8.53,8.53v34.13a8.54,8.54,0,0,0,8.53,8.53h34.13a8.54,8.54,0,0,0,8.53-8.53V366.93A8.54,8.54,0,0,0,145.07,358.4Zm-8.53,34.13H119.47V375.47h17.07Z"/><path class="cls-1" d="M230.4,358.4H196.27a8.54,8.54,0,0,0-8.53,8.53v34.13a8.54,8.54,0,0,0,8.53,8.53H230.4a8.54,8.54,0,0,0,8.53-8.53V366.93A8.54,8.54,0,0,0,230.4,358.4Zm-8.53,34.13H204.8V375.47h17.07Z"/><path class="cls-1" d="M153.6,281.6a8.54,8.54,0,0,0-8.53-8.53H110.93a8.54,8.54,0,0,0-8.53,8.53v34.13a8.54,8.54,0,0,0,8.53,8.53h34.13a8.54,8.54,0,0,0,8.53-8.53Zm-17.07,25.6H119.47V290.13h17.07Z"/><path class="cls-1" d="M426.67,409.6V384a8.53,8.53,0,0,0-17.07,0v34.13a8.54,8.54,0,0,0,8.53,8.53h51.2a8.53,8.53,0,0,0,0-17.07Z"/><path class="cls-1" d="M409.6,196.27a8.54,8.54,0,0,0-8.53-8.53H366.93a8.54,8.54,0,0,0-8.53,8.53V230.4a8.54,8.54,0,0,0,8.53,8.53h34.13a8.54,8.54,0,0,0,8.53-8.53Zm-17.07,25.6H375.47V204.8h17.07Z"/><path class="cls-1" d="M401.07,307.2a8.54,8.54,0,0,0,8.53-8.53V281.6a8.54,8.54,0,0,0-8.53-8.53H366.93a8.54,8.54,0,0,0-8.53,8.53v17.07a8.53,8.53,0,0,0,17.07,0v-8.53h17.07v8.53A8.54,8.54,0,0,0,401.07,307.2Z"/><path class="cls-1" d="M298.67,375.47a8.53,8.53,0,1,0,0-17.07H281.6a8.54,8.54,0,0,0-8.53,8.53v34.13a8.54,8.54,0,0,0,8.53,8.53h17.07a8.53,8.53,0,1,0,0-17.07h-8.53V375.47h8.53Z"/><path class="cls-1" d="M153.6,196.27a8.54,8.54,0,0,0-8.53-8.53H110.93a8.54,8.54,0,0,0-8.53,8.53V230.4a8.54,8.54,0,0,0,8.53,8.53h34.13a8.54,8.54,0,0,0,8.53-8.53Zm-17.07,25.6H119.47V204.8h17.07Z"/><path class="cls-1" d="M324.27,315.73V281.6a8.54,8.54,0,0,0-8.53-8.53H281.6a8.54,8.54,0,0,0-8.53,8.53v34.13a8.54,8.54,0,0,0,8.53,8.53h34.13A8.54,8.54,0,0,0,324.27,315.73ZM307.2,307.2H290.13V290.13H307.2Z"/></svg>