<svg xmlns="http://www.w3.org/2000/svg" viewBox="0 0 157.08 169.5"><defs><style>.cls-1{fill:#ed6c3d;}.cls-2{fill:#2794cf;}.cls-3{fill:#6aaf22;}</style></defs><title>involved</title><g id="Layer_2" data-name="Layer 2"><g id="Layer_1-2" data-name="Layer 1"><path class="cls-1" d="M78.54,43.61a2.7,2.7,0,0,0,2.7-2.7V2.7a2.7,2.7,0,1,0-5.41,0V40.9a2.7,2.7,0,0,0,2.7,2.7Zm0,0"/><path class="cls-1" d="M89.37,43.61a2.7,2.7,0,0,0,2.7-2.7V2.7a2.7,2.7,0,0,0-5.41,0V40.9a2.7,2.7,0,0,0,2.7,2.7Zm0,0"/><path class="cls-1" d="M70.41,49.71V10.56a2.7,2.7,0,0,0-5.41,0V52.22a2.7,2.7,0,0,0,2.7,2.7,12.71,12.71,0,0,1,12.7,12.7,2.7,2.7,0,1,0,5.41,0,18.14,18.14,0,0,0-15.4-17.91Zm0,0"/><path class="cls-1" d="M100.21,11.79a2.71,2.71,0,0,0-2.71,2.71V59.8A19,19,0,0,1,88,76.23a2.7,2.7,0,1,0,2.71,4.68l.64-.39v86.27a2.7,2.7,0,1,0,5.41,0V76a24.44,24.44,0,0,0,6.13-16.15V14.49a2.71,2.71,0,0,0-2.7-2.71Zm0,0"/><path class="cls-1" d="M69.06,76.23A19,19,0,0,1,59.58,59.8V30.3a2.7,2.7,0,1,0-5.41,0V59.8A24.47,24.47,0,0,0,65,80.07v86.72a2.7,2.7,0,1,0,5.41,0V78.57a2.71,2.71,0,0,0-1.35-2.34Zm0,0"/><path class="cls-2" d="M24.37,87.8a2.7,2.7,0,0,0,2.7-2.7V46.9a2.7,2.7,0,1,0-5.41,0v38.2a2.7,2.7,0,0,0,2.7,2.7Zm0,0"/><path class="cls-2" d="M35.2,87.8a2.7,2.7,0,0,0,2.7-2.7V46.9a2.71,2.71,0,1,0-5.41,0v38.2a2.7,2.7,0,0,0,2.71,2.7Zm0,0"/><path class="cls-2" d="M16.24,93.9V54.75a2.7,2.7,0,1,0-5.41,0V96.41a2.7,2.7,0,0,0,2.7,2.71,12.71,12.71,0,0,1,12.7,12.7,2.7,2.7,0,1,0,5.41,0A18.14,18.14,0,0,0,16.24,93.9Zm0,0"/><path class="cls-2" d="M46,56a2.7,2.7,0,0,0-2.71,2.7V104a19,19,0,0,1-9.48,16.43,2.7,2.7,0,1,0,2.71,4.68l.64-.39v42.07a2.7,2.7,0,1,0,5.41,0V120.14A24.44,24.44,0,0,0,48.74,104V58.68A2.7,2.7,0,0,0,46,56Zm0,0"/><path class="cls-2" d="M14.89,120.42A19,19,0,0,1,5.41,104V74.49a2.7,2.7,0,1,0-5.41,0V104a24.47,24.47,0,0,0,10.83,20.27v42.53a2.7,2.7,0,1,0,5.41,0v-44a2.7,2.7,0,0,0-1.35-2.34Zm0,0"/><path class="cls-3" d="M132.71,66.16a2.7,2.7,0,0,0,2.7-2.7V25.26a2.7,2.7,0,1,0-5.41,0v38.2a2.7,2.7,0,0,0,2.7,2.7Zm0,0"/><path class="cls-3" d="M121.87,22.55a2.71,2.71,0,0,0-2.7,2.71v38.2a2.7,2.7,0,0,0,5.41,0V25.26a2.71,2.71,0,0,0-2.7-2.71Zm0,0"/><path class="cls-3" d="M146.24,74.77V33.11a2.7,2.7,0,1,0-5.41,0V72.27a18.14,18.14,0,0,0-15.41,17.91,2.71,2.71,0,1,0,5.41,0,12.71,12.71,0,0,1,12.7-12.7,2.71,2.71,0,0,0,2.7-2.71Zm0,0"/><path class="cls-3" d="M123.23,98.78a19,19,0,0,1-9.48-16.43V37a2.7,2.7,0,1,0-5.41,0V82.36a24.45,24.45,0,0,0,6.13,16.15v68.29a2.71,2.71,0,1,0,5.41,0V103.08l.64.39a2.7,2.7,0,1,0,2.71-4.68Zm0,0"/><path class="cls-3" d="M154.37,50.15a2.7,2.7,0,0,0-2.71,2.7v29.5a19,19,0,0,1-9.48,16.43,2.71,2.71,0,0,0-1.35,2.34v65.67a2.71,2.71,0,1,0,5.41,0V102.62a24.47,24.47,0,0,0,10.83-20.27V52.86a2.7,2.7,0,0,0-2.7-2.7Zm0,0"/></g></g></svg>