<svg xmlns="http://www.w3.org/2000/svg" viewBox="0 0 136.83 138.9" width="30px"><defs><style>.cls-1{fill:#ed6c3d;}.cls-2{fill:#ed6c3d;}.cls-3{fill:#ed6c3d;}</style></defs><title>location</title><g id="Layer_2" data-name="Layer 2"><g id="Layer_1-2" data-name="Layer 1"><path class="cls-1" d="M47.59,67.22A26.26,26.26,0,0,0,27.8,58,26.25,26.25,0,0,0,8,67.22C-2.67,79.31-2.67,99,8,111.06L27.8,133.4l19.78-22.35c10.7-12.09,10.7-31.75,0-43.84ZM44.11,108,27.81,126.4,11.5,108c-9.2-10.39-9.2-27.3,0-37.69a21.68,21.68,0,0,1,16.3-7.66,21.68,21.68,0,0,1,16.31,7.66c9.2,10.39,9.2,27.3,0,37.69Zm0,0"/><path class="cls-2" d="M111.9,56.85l15-16.9c8.07-9.09,8.07-23.88,0-33a19.61,19.61,0,0,0-30,0c-8.07,9.09-8.07,23.88,0,33Zm-11.53-46.8a15,15,0,0,1,23.05,0,20.73,20.73,0,0,1,0,26.82l-11.52,13-11.53-13a20.73,20.73,0,0,1,0-26.82Zm0,0"/><path class="cls-3" d="M120.85,126.46a2.32,2.32,0,0,0-2.77,1.75,8,8,0,0,1-1.54,3.23,2.32,2.32,0,1,0,3.65,2.87,12.77,12.77,0,0,0,2.42-5.07,2.32,2.32,0,0,0-1.75-2.78Zm0,0"/><path class="cls-3" d="M73.17,71.9A8.77,8.77,0,0,1,70,71.32a2.52,2.52,0,0,0-3.4,2.59A2.42,2.42,0,0,0,68.23,76a13.81,13.81,0,0,0,4.93.91h.93a2.42,2.42,0,0,0,2.25-1.43,2.52,2.52,0,0,0-2.28-3.57Zm-.12,0"/><path class="cls-3" d="M67.53,57.24a2.32,2.32,0,0,0,1.22-.35,8,8,0,0,1,3.37-1.17,2.32,2.32,0,0,0-.51-4.61A12.58,12.58,0,0,0,66.3,53a2.32,2.32,0,0,0,1.23,4.29Zm0,0"/><path class="cls-3" d="M40.91,133.9h-5a2.42,2.42,0,0,0-2.25,1.44,2.52,2.52,0,0,0,2.28,3.56h5a2.42,2.42,0,0,0,2.25-1.43,2.52,2.52,0,0,0-2.28-3.57Zm-.18.64"/><path class="cls-3" d="M82.18,92.9l-.65,0a2.44,2.44,0,0,0-2.2,1.53,2.51,2.51,0,0,0,2.31,3.46h5a2.51,2.51,0,0,0,2.28-3.55,2.41,2.41,0,0,0-2.25-1.44Zm.14-.11"/><path class="cls-3" d="M81,55.9h5a2.42,2.42,0,0,0,2.25-1.44A2.52,2.52,0,0,0,86,50.9h-5a2.41,2.41,0,0,0-2.24,1.44A2.52,2.52,0,0,0,81,55.9Zm.18-.23"/><path class="cls-3" d="M109.47,92.9a2.52,2.52,0,0,0-2.28,3.56,2.41,2.41,0,0,0,2.25,1.44h5.08a2.41,2.41,0,0,0,2.24-1.44,2.52,2.52,0,0,0-2.28-3.56Zm.18-.11"/><path class="cls-3" d="M118.3,74.4a2.5,2.5,0,0,0-2.5-2.5h-5a2.42,2.42,0,0,0-2.25,1.44,2.52,2.52,0,0,0,2.28,3.56h5a2.5,2.5,0,0,0,2.5-2.5Zm-.36-.17"/><path class="cls-3" d="M95.55,97.9h5a2.41,2.41,0,0,0,2.24-1.44,2.52,2.52,0,0,0-2.28-3.56h-5a2.42,2.42,0,0,0-2.25,1.44,2.52,2.52,0,0,0,2.28,3.56Zm.18-.47"/><path class="cls-3" d="M99.89,55.9a2.52,2.52,0,0,0,2.28-3.56,2.41,2.41,0,0,0-2.24-1.44H94.86a2.41,2.41,0,0,0-2.24,1.44,2.52,2.52,0,0,0,2.28,3.56Zm-.18-.23"/><path class="cls-3" d="M83,71.9a2.52,2.52,0,0,0-2.28,3.57,2.42,2.42,0,0,0,2.25,1.43H88a2.42,2.42,0,0,0,2.25-1.43A2.52,2.52,0,0,0,88,71.9Zm.18,0"/><path class="cls-3" d="M104.38,74.4a2.5,2.5,0,0,0-2.5-2.5h-5a2.42,2.42,0,0,0-2.25,1.44,2.52,2.52,0,0,0,2.28,3.56h5a2.5,2.5,0,0,0,2.5-2.5Zm-.36-.17"/><path class="cls-3" d="M136.67,82.65a2.32,2.32,0,0,0-4.58.74,7.55,7.55,0,0,1,.1,1.28,8.15,8.15,0,0,1-.33,2.29,2.32,2.32,0,0,0,1.58,2.88,2.35,2.35,0,0,0,.65.09,2.32,2.32,0,0,0,2.23-1.67,12.83,12.83,0,0,0,.52-3.58,12.32,12.32,0,0,0-.16-2Zm0,0"/><path class="cls-3" d="M96.58,133.9h-5a2.42,2.42,0,0,0-2.25,1.44,2.52,2.52,0,0,0,2.28,3.56h5a2.42,2.42,0,0,0,2.25-1.43,2.52,2.52,0,0,0-2.28-3.57Zm-.18.64"/><path class="cls-3" d="M82.66,133.9h-5a2.42,2.42,0,0,0-2.25,1.44,2.52,2.52,0,0,0,2.28,3.56h5a2.42,2.42,0,0,0,2.25-1.43,2.52,2.52,0,0,0-2.28-3.57Zm-.18.64"/><path class="cls-3" d="M108.36,116.4a2.5,2.5,0,0,0-2.5-2.5h-5a2.41,2.41,0,0,0-2.24,1.44,2.52,2.52,0,0,0,2.28,3.56h5a2.5,2.5,0,0,0,2.5-2.5ZM108,116"/><path class="cls-3" d="M94.44,116.4a2.5,2.5,0,0,0-2.5-2.5h-5a2.41,2.41,0,0,0-2.24,1.44,2.52,2.52,0,0,0,2.28,3.56h5a2.5,2.5,0,0,0,2.5-2.5Zm-.36-.41"/><path class="cls-3" d="M109.82,133.9H105a2.42,2.42,0,0,0-2.25,1.44A2.52,2.52,0,0,0,105,138.9h4.93l.07-2.5v2.5a2.42,2.42,0,0,0,2.41-2.5,2.57,2.57,0,0,0-2.59-2.5Zm.33.64"/><path class="cls-3" d="M118.36,122.29a2.32,2.32,0,0,0,1.82-3.75,12.86,12.86,0,0,0-4.36-3.54,2.32,2.32,0,1,0-2.07,4.15,8.13,8.13,0,0,1,2.78,2.26,2.33,2.33,0,0,0,1.83.88Zm0,0"/><path class="cls-3" d="M127.3,92.22a8.67,8.67,0,0,1-3.38.68h-.57a2.42,2.42,0,0,0-2.25,1.44,2.52,2.52,0,0,0,2.28,3.56h.54a13.64,13.64,0,0,0,5.33-1.08,2.42,2.42,0,0,0,1.52-2.07,2.52,2.52,0,0,0-3.47-2.53Zm-.09-.06"/><path class="cls-3" d="M63.84,69.25a2.32,2.32,0,0,0,1.48-2.93,8.1,8.1,0,0,1-.4-2.52,9.35,9.35,0,0,1,.06-1,2.32,2.32,0,1,0-4.6-.58,13.61,13.61,0,0,0-.1,1.61,12.77,12.77,0,0,0,.63,4,2.32,2.32,0,0,0,2.2,1.6,2.22,2.22,0,0,0,.73-.12Zm0,0"/><path class="cls-3" d="M54.82,133.9h-5a2.42,2.42,0,0,0-2.25,1.44,2.52,2.52,0,0,0,2.28,3.56h5a2.42,2.42,0,0,0,2.25-1.43,2.52,2.52,0,0,0-2.28-3.57Zm-.18.64"/><path class="cls-3" d="M78,117.36a2.32,2.32,0,0,0,1-4.43,8.21,8.21,0,0,1-2.85-2.17,2.32,2.32,0,1,0-3.55,3,12.84,12.84,0,0,0,4.47,3.4,2.33,2.33,0,0,0,1,.21Zm0,0"/><path class="cls-3" d="M130.46,73.62a12.64,12.64,0,0,0-5.37-1.68,2.32,2.32,0,0,0-.36,4.63,8,8,0,0,1,3.41,1.06,2.32,2.32,0,1,0,2.33-4Zm0,0"/><path class="cls-3" d="M68.74,133.9h-5a2.42,2.42,0,0,0-2.25,1.44,2.52,2.52,0,0,0,2.28,3.56h5A2.42,2.42,0,0,0,71,137.46a2.52,2.52,0,0,0-2.28-3.57Zm-.18.64"/><path class="cls-3" d="M74.34,104a8.07,8.07,0,0,1,1.44-3.28A2.32,2.32,0,0,0,72,98a12.74,12.74,0,0,0-2.26,5.16,2.32,2.32,0,1,0,4.56.87Zm0,0"/><path class="cls-2" d="M112.47,34.79A12.76,12.76,0,1,0,99.71,22a12.77,12.77,0,0,0,12.76,12.76Zm0-20.88A8.12,8.12,0,1,1,104.35,22a8.13,8.13,0,0,1,8.12-8.12Zm0,0"/><path class="cls-1" d="M27.8,71.91A13.92,13.92,0,1,0,41.72,85.83,13.93,13.93,0,0,0,27.8,71.91Zm0,23.2a9.28,9.28,0,1,1,9.28-9.28,9.29,9.29,0,0,1-9.28,9.28Zm0,0"/></g></g></svg>